<?xml version="1.0" encoding="UTF-8" standalone="no"?>
<svg
   xmlns:dc="http://purl.org/dc/elements/1.1/"
   xmlns:cc="http://creativecommons.org/ns#"
   xmlns:rdf="http://www.w3.org/1999/02/22-rdf-syntax-ns#"
   xmlns:svg="http://www.w3.org/2000/svg"
   xmlns="http://www.w3.org/2000/svg"
   xmlns:sodipodi="http://sodipodi.sourceforge.net/DTD/sodipodi-0.dtd"
   xmlns:inkscape="http://www.inkscape.org/namespaces/inkscape"
   inkscape:version="1.0beta2 (2b71d25, 2019-12-03)"
   sodipodi:docname="ochiyu-layer.svg"
   id="svg8"
   version="1.1"
   viewBox="0 0 210 297"
   height="49mm"
   width="210mm">
  <defs
     id="defs2" />
  <sodipodi:namedview
     inkscape:window-maximized="0"
     inkscape:window-y="23"
     inkscape:window-x="0"
     inkscape:window-height="795"
     inkscape:window-width="1440"
     inkscape:snap-global="false"
     showgrid="false"
     inkscape:document-rotation="0"
     inkscape:current-layer="text12"
     inkscape:document-units="mm"
     inkscape:cy="118.37342"
     inkscape:cx="59.876183"
     inkscape:zoom="2.641435"
     inkscape:pageshadow="2"
     inkscape:pageopacity="0.0"
     borderopacity="1.0"
     bordercolor="#666666"
     pagecolor="#ffffff"
     id="base" />
  <metadata
     id="metadata5">
    <rdf:RDF>
      <cc:Work
         rdf:about="">
        <dc:format>image/svg+xml</dc:format>
        <dc:type
           rdf:resource="http://purl.org/dc/dcmitype/StillImage" />
      </cc:Work>
    </rdf:RDF>
  </metadata>
  <g
     id="layer1"
     inkscape:groupmode="layer"
     inkscape:label="レイヤー 1">
    <g
       style="font-style:normal;font-variant:normal;font-weight:normal;font-stretch:normal;font-size:136.849px;line-height:1.25;font-family:Damion;-inkscape-font-specification:'Damion Normal';font-variant-ligatures:normal;font-variant-caps:normal;font-variant-numeric:normal;font-variant-east-asian:normal;stroke-width:0.264583"
       id="text12"
       aria-label="Wellcome to Ochiyu Page">
      <path
         id="path60"
         style=""
         d="m -415.74724,99.550399 q -3.2074,17.907971 -18.10844,47.041841 -4.07606,8.28578 -7.28346,14.56694 -3.2074,6.28115 -6.14752,10.55768 -2.94011,4.20971 -5.94705,6.34798 -2.94011,2.13826 -6.54844,2.13826 -2.47237,0 -4.20971,-1.20277 -1.73734,-1.20277 -3.00693,-4.61063 -1.2696,-3.47469 -2.13827,-9.68902 -0.86867,-6.21434 -1.53688,-16.30428 l -14.90103,21.85041 q -2.00463,2.94011 -3.80879,5.01156 -1.73734,2.00462 -3.47468,3.27421 -1.67052,1.20278 -3.47468,1.73735 -1.80417,0.53456 -3.80879,0.53456 -2.87329,0 -4.8111,-1.67052 -1.87098,-1.67052 -1.87098,-4.87792 0,-4.74427 0,-10.42404 0.0668,-5.74659 0.3341,-12.76277 0.26729,-7.08301 0.80185,-15.56925 0.60139,-8.55306 1.67052,-18.97711 -2.33872,2.73966 -3.94242,3.94243 -1.6037,1.20277 -2.60601,1.20277 -0.86867,0 -1.2696,-0.73502 -0.40092,-0.73503 -0.40092,-2.00463 0,-2.20509 1.13595,-5.61295 1.13595,-3.40786 3.27422,-7.28346 2.13826,-3.87561 5.27884,-7.684395 3.2074,-3.875607 7.35029,-6.882543 0.80185,-0.534566 1.80416,-0.534566 1.20278,0 2.27191,0.86867 1.13595,0.868671 1.9378,2.271907 0.86867,1.403237 1.33642,3.140578 0.53456,1.737341 0.53456,3.407859 0,1.6037 -0.20046,2.67283 -0.3341,1.47006 -0.66821,2.60602 -0.26728,1.13595 -0.60138,2.73965 -0.33411,1.6037 -0.73503,4.20971 -0.40093,2.53919 -0.93549,6.88254 -0.66821,5.47931 -1.06914,11.02543 -0.3341,5.54613 -0.60138,11.2259 -0.26729,5.61294 -0.53457,11.35953 -0.20046,5.74659 -0.46775,11.62682 1.47006,-1.80416 3.40787,-4.61063 1.9378,-2.8733 4.00924,-6.01387 2.07145,-3.2074 4.07607,-6.4148 2.00463,-3.2074 3.60833,-5.81341 1.67052,-2.53919 2.60601,-4.14289 l 0.93549,-1.67052 q 2.47237,-6.28116 5.01156,-12.36185 2.53919,-6.08069 5.01156,-12.09456 2.40555,-5.88023 5.07838,-9.08763 2.67283,-3.207401 5.81341,-3.207401 2.53919,0 4.07607,0.935491 1.53688,0.86867 1.53688,2.27191 0,2.33873 -1.20278,5.54612 -1.13595,3.14058 -2.67283,6.7489 -1.53688,3.60833 -3.07376,7.41711 -1.47006,3.80879 -2.20508,7.28347 -0.33411,5.81341 -0.53457,9.88948 -0.20046,4.07607 -0.20046,7.48393 0,4.20971 0.0668,8.82034 0.0668,4.61064 0.60139,8.82035 2.67283,-3.87561 5.54612,-8.3526 2.94012,-4.54381 5.81341,-9.35491 2.8733,-4.8111 5.54613,-9.82266 2.67283,-5.07838 4.94474,-10.08994 2.2719,-5.01156 3.94242,-9.82266 1.67052,-4.87792 2.53919,-9.28809 l 0.86867,-5.01156 q 0,-0.26728 0.0668,-0.53457 0.0668,-0.26728 0.0668,-0.53456 0.40092,-2.004626 0.86867,-3.608325 0.46774,-1.6037 1.20277,-2.672832 0.80185,-1.135954 1.9378,-1.737341 1.20278,-0.601387 2.94012,-0.601387 2.87329,0 4.14289,0.601387 1.33642,0.601387 1.33642,2.672832 0,0.668208 -0.13365,1.336416 -0.0668,0.668208 -0.20046,1.603699 z" />
      <path
         id="path62"
         style=""
         d="m -399.2425,139.7097 q -0.3341,-0.0668 -0.60139,-0.0668 -0.26728,0 -0.60138,0 -2.5392,0 -4.74428,1.00231 -2.20509,1.00231 -4.07607,2.67283 -1.80416,1.6037 -3.27422,3.67515 -1.40324,2.07144 -2.53919,4.14289 -1.13595,2.00462 -1.9378,3.8756 -0.73503,1.87099 -1.13596,3.14058 2.33873,-1.20277 4.8111,-2.73965 2.53919,-1.53688 4.74428,-2.94012 2.20508,-1.40323 3.80878,-2.53919 1.67052,-1.13595 2.33873,-1.53688 3.00694,-1.87098 4.14289,-3.47468 1.13595,-1.67052 1.13595,-2.87329 0,-1.00231 -0.6682,-1.6037 -0.60139,-0.60139 -1.40324,-0.73503 z m 2.40555,-9.22127 q 5.54613,0 8.28578,2.67283 2.73965,2.67283 2.73965,7.41711 0,2.80647 -1.47006,5.88023 -1.47005,3.07376 -5.07838,6.28116 -3.60832,3.14057 -9.68901,6.48161 -6.01388,3.27422 -15.1015,6.61526 0.3341,1.93781 2.07144,3.07376 1.73734,1.06913 4.61064,1.06913 3.07375,0 6.54843,-0.86867 3.54151,-0.93549 6.94937,-2.33873 3.47468,-1.40323 6.7489,-3.00693 3.27422,-1.67052 5.88023,-3.14058 2.67283,-1.47006 4.41017,-2.53919 1.80416,-1.06913 2.40555,-1.33642 0.60139,-0.40092 1.06913,-0.46774 0.53457,-0.0668 0.93549,-0.0668 0.80185,0 1.33642,0.40092 0.53457,0.33411 0.86867,0.86867 0.40093,0.46775 0.53457,1.06914 0.13364,0.53456 0.13364,0.93549 0,0.60138 -0.13364,1.47005 -0.13364,0.80185 -1.00232,1.87099 -0.3341,0.3341 -2.2719,1.80416 -1.87098,1.47006 -4.87792,3.47468 -3.00694,2.00462 -7.01618,4.27653 -3.94243,2.20509 -8.41943,4.07607 -4.41017,1.87098 -9.22127,3.07376 -4.81109,1.26959 -9.48855,1.26959 -4.00925,0 -7.14983,-1.53688 -3.07375,-1.53687 -5.27884,-4.14289 -2.13826,-2.60601 -3.27422,-6.01387 -1.13595,-3.40786 -1.13595,-7.14982 0,-2.8733 1.13595,-6.28116 1.13596,-3.47468 3.27422,-6.94936 2.13827,-3.47468 5.21202,-6.7489 3.14058,-3.34104 7.01619,-5.88023 3.8756,-2.53919 8.48624,-4.07607 4.67746,-1.53688 9.9563,-1.53688 z" />
      <path
         id="path64"
         style=""
         d="m -368.57175,159.82276 q -0.73503,1.53688 -1.47006,3.60832 -0.6682,2.00463 -0.6682,3.60833 0,1.00231 0.40092,1.6037 0.40092,0.60138 1.53688,0.60138 1.40324,0 3.47468,-0.80185 2.13827,-0.86867 4.54381,-2.20508 2.47237,-1.40324 5.07839,-3.14058 2.67283,-1.80416 5.27884,-3.67514 2.60601,-1.93781 4.94474,-3.80879 2.40555,-1.9378 4.27653,-3.5415 0.53457,-0.46775 1.26959,-0.66821 0.73503,-0.20046 1.2696,-0.20046 1.33642,0 2.20509,0.93549 0.86867,0.93549 0.86867,2.47237 0,1.40324 -0.93549,3.14058 -0.9355,1.73734 -3.27422,3.40786 -4.27654,3.94242 -8.61989,7.48393 -4.34335,3.5415 -8.6867,6.28115 -4.27653,2.67283 -8.55306,4.27653 -4.20971,1.6037 -8.21896,1.6037 -2.73966,0 -4.61064,-0.73503 -1.80416,-0.73503 -2.94011,-2.00462 -1.06914,-1.2696 -1.53688,-3.00694 -0.46775,-1.73734 -0.46775,-3.67514 0,-3.27422 0.93549,-6.68208 1.00232,-3.47468 2.33873,-6.34798 2.33873,-5.21202 4.74428,-10.35722 2.40555,-5.1452 4.41017,-9.42173 l 20.2467,-43.09942 q 1.20278,-2.606011 3.2074,-3.675144 2.07145,-1.069133 4.14289,-1.069133 2.07145,0 3.74197,1.135954 1.73734,1.135954 1.73734,3.675144 0,1.202774 -0.60139,2.53919 -0.53457,1.336416 -1.40324,2.873299 -1.67052,3.14057 -4.00924,7.68439 -2.27191,4.54381 -4.94474,9.88948 -2.60601,5.34566 -5.41249,11.15907 -2.73965,5.74659 -5.41248,11.22589 -2.60601,5.47931 -4.94474,10.42405 -2.27191,4.87792 -3.94243,8.48624 z" />
      <path
         id="path66"
         style=""
         d="m -333.29036,159.82276 q -0.73503,1.53688 -1.47006,3.60832 -0.66821,2.00463 -0.66821,3.60833 0,1.00231 0.40093,1.6037 0.40092,0.60138 1.53688,0.60138 1.40323,0 3.47468,-0.80185 2.13826,-0.86867 4.54381,-2.20508 2.47237,-1.40324 5.07838,-3.14058 2.67283,-1.80416 5.27885,-3.67514 2.60601,-1.93781 4.94474,-3.80879 2.40554,-1.9378 4.27653,-3.5415 0.53456,-0.46775 1.26959,-0.66821 0.73503,-0.20046 1.2696,-0.20046 1.33641,0 2.20508,0.93549 0.86867,0.93549 0.86867,2.47237 0,1.40324 -0.93549,3.14058 -0.93549,1.73734 -3.27422,3.40786 -4.27653,3.94242 -8.61988,7.48393 -4.34335,3.5415 -8.6867,6.28115 -4.27654,2.67283 -8.55307,4.27653 -4.20971,1.6037 -8.21895,1.6037 -2.73966,0 -4.61064,-0.73503 -1.80416,-0.73503 -2.94012,-2.00462 -1.06913,-1.2696 -1.53687,-3.00694 -0.46775,-1.73734 -0.46775,-3.67514 0,-3.27422 0.93549,-6.68208 1.00231,-3.47468 2.33873,-6.34798 2.33873,-5.21202 4.74428,-10.35722 2.40555,-5.1452 4.41017,-9.42173 l 20.2467,-43.09942 q 1.20278,-2.606011 3.2074,-3.675144 2.07145,-1.069133 4.14289,-1.069133 2.07144,0 3.74196,1.135954 1.73735,1.135954 1.73735,3.675144 0,1.202774 -0.60139,2.53919 -0.53457,1.336416 -1.40324,2.873299 -1.67052,3.14057 -4.00925,7.68439 -2.2719,4.54381 -4.94474,9.88948 -2.60601,5.34566 -5.41248,11.15907 -2.73965,5.74659 -5.41249,11.22589 -2.60601,5.47931 -4.94473,10.42405 -2.27191,4.87792 -3.94243,8.48624 z" />
      <path
         id="path68"
         style=""
         d="m -271.54795,136.70276 q 0,2.07145 -0.46775,4.61064 -0.46774,2.47237 -1.53688,4.67746 -1.06913,2.20508 -2.73965,3.67514 -1.67052,1.47006 -4.14289,1.47006 -1.33642,0 -1.73734,-0.40093 -0.3341,-0.40092 -0.3341,-1.40323 0,-0.60139 0,-1.73735 0.0668,-1.20277 0.0668,-2.2719 0,-1.20278 -0.33411,-2.00463 -0.3341,-0.86867 -1.67052,-0.86867 -1.53688,0 -3.47468,1.20278 -1.87098,1.13595 -3.80878,3.00693 -1.87099,1.87099 -3.67515,4.27653 -1.80416,2.33873 -3.27422,4.8111 -1.40323,2.40555 -2.2719,4.67746 -0.80185,2.27191 -0.80185,3.8756 0,2.33873 1.60369,3.67515 1.67052,1.33641 4.477,1.33641 3.00693,0 6.4148,-1.00231 3.40786,-1.00231 6.7489,-2.53919 3.40786,-1.53688 6.54843,-3.34104 3.14058,-1.80416 5.67977,-3.40786 2.60601,-1.67052 4.34335,-2.80647 1.73735,-1.20278 2.27191,-1.47006 1.06913,-0.53457 2.00463,-0.53457 0.80185,0 1.33641,0.40093 0.60139,0.3341 0.93549,0.86867 0.33411,0.46774 0.46775,1.06913 0.13364,0.53457 0.13364,0.93549 0,0.60139 -0.13364,1.47006 -0.13364,0.80185 -1.00231,1.87098 -0.33411,0.40093 -2.20509,2.07145 -1.80416,1.6037 -4.74428,3.80878 -2.87329,2.20509 -6.68208,4.74428 -3.74196,2.47237 -8.08531,4.54381 -4.27653,2.07145 -8.88717,3.40787 -4.61064,1.40323 -9.08763,1.40323 -3.40786,0 -6.08069,-1.06913 -2.60601,-1.06913 -4.41017,-2.8733 -1.80417,-1.87098 -2.73966,-4.34335 -0.93549,-2.47237 -0.93549,-5.21202 0,-3.00694 1.40324,-6.88254 1.40324,-3.94243 3.8756,-8.0185 2.47237,-4.07607 5.81341,-8.01849 3.34104,-3.94243 7.21665,-7.01619 3.94243,-3.07375 8.15214,-4.94474 4.27653,-1.87098 8.61988,-1.87098 1.47006,0 2.73965,0.3341 1.33642,0.33411 2.27191,1.06914 1.00231,0.66821 1.53688,1.87098 0.60139,1.20277 0.60139,2.87329 z" />
      <path
         id="path70"
         style=""
         d="m -240.60992,142.31571 q -3.14058,0 -6.0807,1.6037 -2.87329,1.53688 -5.1452,4.14289 -2.20509,2.53919 -3.5415,5.81341 -1.33642,3.2074 -1.33642,6.61526 0,1.26959 0.20046,2.80647 0.20047,1.47006 0.80185,2.80648 0.66821,1.26959 1.87099,2.13826 1.20277,0.86867 3.2074,0.86867 3.07375,0 5.94705,-1.6037 2.94011,-1.67052 5.21202,-4.27653 2.27191,-2.67283 3.60832,-6.01387 1.33642,-3.34104 1.33642,-6.7489 0,-1.33642 -0.20046,-2.73965 -0.13365,-1.47006 -0.80185,-2.67284 -0.60139,-1.20277 -1.80417,-1.9378 -1.20277,-0.80185 -3.27421,-0.80185 z m 3.47468,-11.76046 q 2.53919,0 5.41248,0.66821 2.94012,0.66821 5.41249,2.27191 2.47237,1.60369 4.07607,4.27653 1.67052,2.60601 1.67052,6.48161 0,2.00463 -0.53457,4.61064 -0.53457,2.53919 -1.6037,5.34566 0.66821,0.80185 1.53688,1.13596 0.86867,0.3341 1.87098,0.3341 1.40324,0 3.07376,-0.80185 1.73734,-0.80185 3.5415,-2.07144 1.80416,-1.2696 3.60832,-2.8733 1.80416,-1.6037 3.40786,-3.2074 1.6037,-1.6037 2.8733,-3.00693 1.33641,-1.47006 2.20508,-2.47237 0.46775,-0.46775 1.13596,-0.46775 0.93549,0 1.67052,1.00231 0.73503,0.9355 0.73503,2.67284 0,1.73734 -1.06914,4.00924 -1.00231,2.27191 -3.80878,4.74428 -1.6037,1.73734 -3.67515,4.00925 -2.07144,2.27191 -4.41017,4.27653 -2.33873,2.00462 -4.87792,3.40786 -2.53919,1.40324 -5.07838,1.40324 -1.73734,0 -3.40786,-0.53457 -1.6037,-0.53456 -3.27422,-1.73734 -2.40555,3.74197 -5.4793,6.81572 -3.07376,3.07376 -6.88255,5.27885 -3.74196,2.20508 -8.15213,3.40786 -4.34336,1.26959 -9.28809,1.26959 -1.87099,0 -4.34336,-0.73503 -2.47237,-0.73503 -4.74427,-2.40555 -2.20509,-1.73734 -3.74197,-4.47699 -1.53688,-2.73965 -1.53688,-6.68208 0,-2.67283 0.86867,-6.4148 0.86867,-3.74196 2.60602,-7.68439 1.80416,-4.00925 4.47699,-7.88485 2.73965,-3.94243 6.48162,-7.01619 3.74196,-3.14057 8.55306,-5.01156 4.8111,-1.9378 10.69133,-1.9378 z" />
      <path
         id="path72"
         style=""
         d="m -188.35607,176.86206 q 0,-3.20739 1.40324,-6.54843 1.47006,-3.34104 3.67515,-6.88255 2.20508,-3.5415 4.81109,-7.14982 2.60601,-3.67515 4.94474,-7.48393 0.66821,-1.06913 1.06913,-2.00463 0.40093,-1.00231 0.40093,-2.00462 0,-1.06913 -0.60139,-1.73734 -0.60138,-0.73503 -1.73734,-0.73503 -2.73965,0 -5.27884,1.20278 -2.53919,1.13595 -4.87792,3.07375 -2.33873,1.87098 -4.47699,4.34335 -2.07145,2.47237 -3.94243,5.14521 -1.80416,2.60601 -3.40786,5.21202 -1.6037,2.60601 -2.94012,4.74428 -1.20277,2.20508 -2.20508,4.81109 -1.00232,2.60601 -2.20509,4.8111 -1.13595,2.20509 -2.60601,3.67514 -1.47006,1.53688 -3.67514,1.53688 -2.40555,0 -3.80879,-1.53688 -1.40324,-1.53687 -1.40324,-3.67514 0,-1.20277 0.86867,-3.74196 0.86867,-2.53919 2.20509,-5.88023 1.40324,-3.40787 3.14058,-7.21665 1.73734,-3.80879 3.40786,-7.55075 1.73734,-3.74197 3.2074,-7.01619 1.53687,-3.34104 2.53919,-5.67976 1.20277,-2.8733 3.14057,-4.27653 2.00463,-1.40324 3.94243,-1.40324 1.67052,0 2.94012,1.26959 1.33641,1.20278 1.33641,3.54151 0,1.73734 -0.80185,3.80878 1.80416,-1.67052 3.87561,-3.60832 2.07144,-1.9378 4.47699,-3.5415 2.47237,-1.67052 5.47931,-2.73966 3.00693,-1.06913 6.7489,-1.06913 1.87098,0 3.5415,0.46775 1.67052,0.46774 2.94012,1.47005 1.33641,1.00232 2.13826,2.60601 0.86867,1.6037 1.00231,3.87561 1.53688,-1.53688 3.34104,-3.00693 1.80417,-1.53688 3.87561,-2.73966 2.13827,-1.20277 4.61064,-1.9378 2.47237,-0.73503 5.4793,-0.73503 2.20509,0 4.20971,0.46775 2.00463,0.46774 3.54151,1.6037 1.60369,1.06913 2.47236,2.80647 0.9355,1.73734 0.9355,4.27653 0,4.00925 -1.87099,7.61757 -1.80416,3.60832 -4.27653,6.61526 -0.80185,1.00231 -2.13826,2.53919 -1.33642,1.53688 -2.60601,3.27422 -1.2696,1.73734 -2.20509,3.60832 -0.93549,1.80416 -0.93549,3.40786 0,1.47006 0.86867,1.87099 0.93549,0.40092 2.40555,0.40092 2.80647,0 6.08069,-1.67052 3.27422,-1.67052 6.34798,-4.00925 3.14057,-2.40555 5.81341,-4.94474 2.73965,-2.60601 4.34335,-4.34335 0.40092,-0.46774 0.93549,-0.66821 0.53457,-0.20046 1.06913,-0.20046 1.20278,0 2.13827,1.06913 1.00231,1.06914 1.00231,2.80648 0,1.33641 -0.80185,2.94011 -0.80185,1.6037 -2.73965,3.14058 -3.60833,3.47468 -7.41711,6.68208 -3.74197,3.14058 -7.61757,5.61295 -3.80879,2.40555 -7.6844,3.8756 -3.80878,1.47006 -7.61757,1.47006 -4.94474,0 -8.01849,-2.33873 -3.00694,-2.33872 -3.00694,-7.4171 0,-3.34104 1.2696,-6.28116 1.26959,-2.94012 3.14057,-5.61295 1.87099,-2.73965 3.94243,-5.27884 2.07145,-2.53919 3.60832,-5.07838 0.66821,-1.06913 1.06914,-2.00463 0.40092,-1.00231 0.40092,-2.00462 0,-1.06913 -0.60139,-1.73734 -0.60138,-0.73503 -1.73734,-0.73503 -2.73965,0 -5.27884,1.20278 -2.53919,1.13595 -4.87792,3.07375 -2.33873,1.87098 -4.47699,4.34335 -2.07145,2.47237 -3.94243,5.14521 -1.80416,2.60601 -3.40786,5.21202 -1.6037,2.60601 -2.94011,4.74428 -1.20278,2.20508 -2.20509,4.81109 -1.00231,2.60601 -2.20509,4.8111 -1.13595,2.20509 -2.60601,3.67514 -1.47006,1.53688 -3.67514,1.53688 -0.80185,0 -1.73734,-0.3341 -0.93549,-0.26728 -1.73734,-0.80185 -0.73503,-0.53457 -1.2696,-1.2696 -0.46774,-0.73502 -0.53457,-1.6037 z" />
      <path
         id="path74"
         style=""
         d="m -94.272354,139.7097 q -0.334104,-0.0668 -0.601387,-0.0668 -0.267283,0 -0.601387,0 -2.539191,0 -4.744282,1.00231 -2.20508,1.00231 -4.07606,2.67283 -1.80417,1.6037 -3.27422,3.67515 -1.40324,2.07144 -2.53919,4.14289 -1.13596,2.00462 -1.93781,3.8756 -0.73503,1.87099 -1.13595,3.14058 2.33873,-1.20277 4.8111,-2.73965 2.53919,-1.53688 4.74427,-2.94012 2.20509,-1.40323 3.80879,-2.53919 1.67052,-1.13595 2.338728,-1.53688 3.006936,-1.87098 4.142889,-3.47468 1.135954,-1.67052 1.135954,-2.87329 0,-1.00231 -0.668208,-1.6037 -0.601387,-0.60139 -1.403237,-0.73503 z m 2.405549,-9.22127 q 5.546126,0 8.285779,2.67283 2.739653,2.67283 2.739653,7.41711 0,2.80647 -1.470058,5.88023 -1.470057,3.07376 -5.078381,6.28116 -3.608323,3.14057 -9.689016,6.48161 -6.013872,3.27422 -15.101502,6.61526 0.33411,1.93781 2.07145,3.07376 1.73734,1.06913 4.61063,1.06913 3.07376,0 6.54844,-0.86867 3.541502,-0.93549 6.949363,-2.33873 3.474682,-1.40323 6.748901,-3.00693 3.274219,-1.67052 5.88023,-3.14058 2.672832,-1.47006 4.410173,-2.53919 1.804162,-1.06913 2.405549,-1.33642 0.601387,-0.40092 1.069133,-0.46774 0.534566,-0.0668 0.935491,-0.0668 0.80185,0 1.336416,0.40092 0.534567,0.33411 0.868671,0.86867 0.400924,0.46775 0.534566,1.06914 0.133642,0.53456 0.133642,0.93549 0,0.60138 -0.133642,1.47005 -0.133642,0.80185 -1.002312,1.87099 -0.334104,0.3341 -2.271907,1.80416 -1.870983,1.47006 -4.877919,3.47468 -3.006936,2.00462 -7.016184,4.27653 -3.942427,2.20509 -8.419421,4.07607 -4.410172,1.87098 -9.22127,3.07376 -4.8111,1.26959 -9.48855,1.26959 -4.00925,0 -7.14983,-1.53688 -3.07376,-1.53687 -5.27884,-4.14289 -2.13827,-2.60601 -3.27422,-6.01387 -1.13596,-3.40786 -1.13596,-7.14982 0,-2.8733 1.13596,-6.28116 1.13595,-3.47468 3.27422,-6.94936 2.13826,-3.47468 5.21202,-6.7489 3.14058,-3.34104 7.01618,-5.88023 3.87561,-2.53919 8.48625,-4.07607 4.677452,-1.53688 9.956295,-1.53688 z" />
      <path
         id="path76"
         style=""
         d="m -22.840932,141.98161 q -2.472369,4.81109 -4.677456,9.42173 -2.205086,4.54381 -4.142889,8.41942 -0.80185,1.6037 -1.6037,3.74197 -0.735028,2.07144 -0.735028,3.67514 0,0.93549 0.400924,1.47006 0.467746,0.53456 1.470058,0.53456 1.403237,0 3.541502,-0.80185 2.138266,-0.86867 4.610636,-2.20508 2.472369,-1.40324 5.212022,-3.14058 2.739653,-1.80416 5.345664,-3.67514 2.672832,-1.93781 5.0783808,-3.80879 2.4055488,-1.9378 4.2765313,-3.5415 1.0691328,-0.73503 2.004624,-0.73503 1.13595357,0 1.87098237,1.00231 0.7350288,1.00231 0.7350288,2.53919 0,1.53688 -0.7350288,3.14058 -0.7350288,1.6037 -2.67283197,3.14058 -4.3433521,3.94242 -8.8203455,7.48393 -4.410173,3.5415 -8.820346,6.28115 -4.343352,2.67283 -8.619883,4.27653 -4.276531,1.6037 -8.285779,1.6037 -2.672832,0 -4.476994,-0.73503 -1.804162,-0.6682 -2.940115,-1.87098 -1.069133,-1.26959 -1.536879,-2.87329 -0.467745,-1.67052 -0.467745,-3.54151 0,-3.34104 1.135953,-6.94936 1.135954,-3.60832 2.539191,-6.48162 2.004624,-4.14289 3.942427,-8.21896 2.004624,-4.07606 3.875607,-7.81803 h -2.873295 q -3.741965,0 -5.145202,-1.20277 -1.403236,-1.20278 -1.403236,-2.73966 0,-0.6682 0.400924,-1.6037 0.467746,-1.00231 1.269596,-1.80416 0.86867,-0.86867 2.071444,-1.47005 1.202775,-0.60139 2.739653,-0.60139 h 7.216647 l 14.099189,-27.99792 q 1.336416,-2.53919 3.274219,-3.60832 2.004624,-1.13595 4.1428894,-1.13595 2.004624,0 3.675144,1.06913 1.6705201,1.06913 1.6705201,3.5415 0,1.2696 -0.6013873,2.60601 -0.5345664,1.2696 -1.4700576,3.00694 -0.6013872,1.13595 -1.4700576,2.73965 -0.8686704,1.53688 -1.8709824,3.34104 -0.9354916,1.73734 -2.0046236,3.67515 -1.002312,1.9378 -2.004624,3.74196 -2.271908,4.27653 -4.811098,9.02081 H 3.3528219 q 1.6036992,0 2.9401152,0.20046 1.336416,0.13364 2.2719072,0.66821 1.002312,0.46774 1.5368787,1.33641 0.534566,0.86868 0.534566,2.33873 0,0.73503 -0.267283,1.47006 -0.200462,0.73503 -0.8686705,1.33642 -0.6013872,0.60138 -1.7373408,1.00231 -1.0691328,0.40092 -2.8064736,0.53456 z" />
      <path
         id="path78"
         style=""
         d="m 18.120208,142.31571 q -3.140577,0 -6.080693,1.6037 -2.873294,1.53688 -5.1452012,4.14289 -2.2050864,2.53919 -3.5415024,5.81341 -1.336416,3.2074 -1.336416,6.61526 0,1.26959 0.2004624,2.80647 0.2004624,1.47006 0.8018496,2.80648 0.668208,1.26959 1.8709824,2.13826 1.2027744,0.86867 3.2073984,0.86867 3.0737568,0 5.9470508,-1.6037 2.940116,-1.67052 5.212023,-4.27653 2.271907,-2.67283 3.608323,-6.01387 1.336416,-3.34104 1.336416,-6.7489 0,-1.33642 -0.200462,-2.73965 -0.133642,-1.47006 -0.80185,-2.67284 -0.601387,-1.20277 -1.804162,-1.9378 -1.202774,-0.80185 -3.274219,-0.80185 z m 3.474682,-11.76046 q 2.53919,0 5.412485,0.66821 2.940115,0.66821 5.412485,2.27191 2.472369,1.60369 4.076068,4.27653 1.67052,2.60601 1.67052,6.48161 0,2.00463 -0.534566,4.61064 -0.534566,2.53919 -1.603699,5.34566 0.668208,0.80185 1.536878,1.13596 0.868671,0.3341 1.870983,0.3341 1.403236,0 3.073756,-0.80185 1.737341,-0.80185 3.541503,-2.07144 1.804161,-1.2696 3.608323,-2.8733 1.804162,-1.6037 3.407861,-3.2074 1.603699,-1.6037 2.873294,-3.00693 1.336416,-1.47006 2.205087,-2.47237 0.467745,-0.46775 1.135953,-0.46775 0.935491,0 1.67052,1.00231 0.735029,0.9355 0.735029,2.67284 0,1.73734 -1.069133,4.00924 -1.002312,2.27191 -3.808785,4.74428 -1.6037,1.73734 -3.675144,4.00925 -2.071445,2.27191 -4.410173,4.27653 -2.338728,2.00462 -4.877919,3.40786 -2.53919,1.40324 -5.07838,1.40324 -1.737341,0 -3.407861,-0.53457 -1.603699,-0.53456 -3.274219,-1.73734 -2.405549,3.74197 -5.479306,6.81572 -3.073757,3.07376 -6.882543,5.27885 -3.741964,2.20508 -8.152137,3.40786 -4.3433522,1.26959 -9.2880914,1.26959 -1.87098242,0 -4.343352,-0.73503 -2.4723696,-0.73503 -4.7442769,-2.40555 -2.2050864,-1.73734 -3.7419647,-4.47699 -1.536878,-2.73965 -1.536878,-6.68208 0,-2.67283 0.86867,-6.4148 0.86867,-3.74196 2.6060111,-7.68439 1.8041616,-4.00925 4.4769937,-7.88485 2.7396528,-3.94243 6.4816176,-7.01619 3.7419648,-3.14057 8.5530626,-5.01156 4.811097,-1.9378 10.691328,-1.9378 z" />
      <path
         id="path80"
         style=""
         d="m 89.952583,148.46322 q 0,-9.75583 2.873294,-18.37572 2.940116,-8.6867 7.818033,-15.97017 4.94474,-7.35028 11.35954,-13.16369 6.48161,-5.813414 13.4978,-9.822662 7.083,-4.076069 14.29965,-6.214334 7.28347,-2.205087 13.83191,-2.205087 5.81341,0 11.02543,1.336416 5.27884,1.336416 9.35491,4.076069 4.14289,2.739653 6.88254,6.949363 2.73965,4.14289 3.67515,9.755835 0.0668,0.33411 0.0668,0.60139 0,0.26728 0,0.60139 0,2.60601 -1.53688,4.00924 -1.47006,1.33642 -3.2074,1.33642 -1.9378,0 -3.60832,-2.07144 -1.67052,-2.07145 -3.2074,-5.88023 -2.47237,-4.677461 -7.14983,-6.815726 -4.67745,-2.138266 -10.55768,-2.138266 -5.14521,0 -10.82497,1.870983 -5.61295,1.870982 -11.15908,5.278839 -5.4793,3.40786 -10.49086,8.21896 -5.01156,4.74428 -8.82035,10.55769 -3.80878,5.74659 -6.08069,12.42867 -2.20509,6.68208 -2.20509,13.8319 0,5.94705 1.47006,10.02312 1.47006,4.07607 3.87561,6.61526 2.40555,2.53919 5.41248,3.67515 3.00694,1.13595 6.08069,1.13595 6.88255,0 13.09688,-3.74196 6.28116,-3.74197 11.02543,-10.69133 4.74428,-7.01619 7.55075,-17.03931 2.80648,-10.08994 2.80648,-22.71907 0,-1.26959 -0.0668,-2.47237 0,-1.26959 0,-2.60601 0,-3.34104 1.20277,-4.87792 1.20278,-1.6037 2.73965,-1.6037 2.60601,0 4.20971,1.47006 1.67052,1.40324 2.60602,3.80879 0.93549,2.33872 1.26959,5.41248 0.40093,3.00694 0.40093,6.21434 0,9.08762 -1.93781,17.17294 -1.9378,8.0185 -5.41248,14.90104 -3.40786,6.81572 -8.15214,12.29503 -4.67746,5.41248 -10.15676,9.22127 -5.47931,3.74196 -11.56,5.81341 -6.01387,2.00462 -12.16139,2.00462 -5.67976,0 -11.09225,-1.6037 -5.41248,-1.67052 -9.689015,-5.41248 -4.20971,-3.80879 -6.815722,-9.9563 -2.53919,-6.21434 -2.53919,-15.23515 z" />
      <path
         id="path82"
         style=""
         d="m 208.49267,136.70276 q 0,2.07145 -0.46775,4.61064 -0.46775,2.47237 -1.53688,4.67746 -1.06913,2.20508 -2.73965,3.67514 -1.67052,1.47006 -4.14289,1.47006 -1.33642,0 -1.73734,-0.40093 -0.33411,-0.40092 -0.33411,-1.40323 0,-0.60139 0,-1.73735 0.0668,-1.20277 0.0668,-2.2719 0,-1.20278 -0.33411,-2.00463 -0.3341,-0.86867 -1.67052,-0.86867 -1.53688,0 -3.47468,1.20278 -1.87098,1.13595 -3.80879,3.00693 -1.87098,1.87099 -3.67514,4.27653 -1.80416,2.33873 -3.27422,4.8111 -1.40324,2.40555 -2.27191,4.67746 -0.80185,2.27191 -0.80185,3.8756 0,2.33873 1.6037,3.67515 1.67052,1.33641 4.477,1.33641 3.00693,0 6.41479,-1.00231 3.40786,-1.00231 6.7489,-2.53919 3.40787,-1.53688 6.54844,-3.34104 3.14058,-1.80416 5.67977,-3.40786 2.60601,-1.67052 4.34335,-2.80647 1.73734,-1.20278 2.27191,-1.47006 1.06913,-0.53457 2.00462,-0.53457 0.80185,0 1.33642,0.40093 0.60139,0.3341 0.93549,0.86867 0.33411,0.46774 0.46775,1.06913 0.13364,0.53457 0.13364,0.93549 0,0.60139 -0.13364,1.47006 -0.13364,0.80185 -1.00231,1.87098 -0.33411,0.40093 -2.20509,2.07145 -1.80416,1.6037 -4.74428,3.80878 -2.87329,2.20509 -6.68208,4.74428 -3.74196,2.47237 -8.08531,4.54381 -4.27654,2.07145 -8.88717,3.40787 -4.61064,1.40323 -9.08763,1.40323 -3.40786,0 -6.08069,-1.06913 -2.60601,-1.06913 -4.41018,-2.8733 -1.80416,-1.87098 -2.73965,-4.34335 -0.93549,-2.47237 -0.93549,-5.21202 0,-3.00694 1.40324,-6.88254 1.40323,-3.94243 3.8756,-8.0185 2.47237,-4.07607 5.81341,-8.01849 3.34104,-3.94243 7.21665,-7.01619 3.94243,-3.07375 8.15214,-4.94474 4.27653,-1.87098 8.61988,-1.87098 1.47006,0 2.73965,0.3341 1.33642,0.33411 2.27191,1.06914 1.00231,0.66821 1.53688,1.87098 0.60139,1.20277 0.60139,2.87329 z" />
      <path
         id="path84"
         style=""
         d="m 207.42353,168.57629 q 1.6037,-3.40787 3.67514,-7.55075 2.07145,-4.20972 4.14289,-8.28578 2.13827,-4.14289 4.00925,-7.81804 1.87098,-3.74196 3.14058,-6.34797 l 22.05086,-43.366703 q 0.40093,-0.86867 1.20278,-1.67052 0.86867,-0.80185 1.9378,-1.403237 1.06913,-0.668208 2.27191,-1.002312 1.20277,-0.400925 2.40555,-0.400925 2.94011,0 4.07607,1.135954 1.13595,1.069133 1.13595,2.672832 0,1.470058 -0.73503,3.140578 -0.73503,1.603699 -1.67052,3.006933 -2.94011,5.01156 -5.67977,10.15676 -2.67283,5.07839 -5.41248,10.29041 -2.67283,5.1452 -5.41249,10.2904 -2.73965,5.07838 -5.74659,10.08994 1.87099,-1.80416 3.94243,-3.74196 2.13827,-1.93781 4.61064,-3.54151 2.47237,-1.60369 5.41248,-2.60601 2.94012,-1.06913 6.54844,-1.06913 2.13827,0 4.07607,0.40093 1.9378,0.40092 3.40786,1.33641 1.47006,0.86867 2.33873,2.47237 0.86867,1.53688 0.86867,3.80879 0,3.00693 -0.93549,5.54612 -0.86867,2.47237 -2.27191,4.74428 -1.40324,2.20509 -3.07376,4.27653 -1.67052,2.00462 -3.2074,4.14289 -1.47005,2.07145 -2.60601,4.34335 -1.06913,2.27191 -1.33641,4.94474 0,0.13364 -0.0668,0.26728 0,0.13365 0,0.26729 0,1.33641 0.86867,1.67052 0.93549,0.3341 2.33873,0.3341 1.80416,0 3.8756,-0.66821 2.07145,-0.73502 4.14289,-1.87098 2.13827,-1.20277 4.20971,-2.67283 2.13827,-1.47006 4.00925,-3.00694 1.9378,-1.53687 3.5415,-2.94011 1.6037,-1.47006 2.73966,-2.53919 0.60138,-0.53457 1.26959,-0.80185 0.66821,-0.26728 1.2696,-0.26728 1.20277,0 2.00462,0.93549 0.86867,0.86867 0.86867,2.40555 0,1.40323 -1.00231,3.20739 -0.93549,1.80417 -3.27422,3.60833 -3.67515,3.2074 -7.48393,6.14751 -3.80879,2.94012 -7.68439,5.21202 -3.87561,2.27191 -7.75122,3.60833 -3.80878,1.33641 -7.48393,1.33641 -4.74427,0 -7.61757,-2.13826 -2.87329,-2.20509 -2.87329,-6.88255 0,-3.40786 1.13595,-6.41479 1.20278,-3.07376 2.8733,-5.88023 1.73734,-2.8733 3.67514,-5.47931 1.9378,-2.67283 3.40786,-5.21202 0.80185,-1.13595 1.20278,-2.07145 0.46774,-1.00231 0.46774,-2.13826 0,-1.00231 -0.53456,-1.6037 -0.53457,-0.66821 -1.67052,-0.66821 -3.94243,0 -7.28347,1.9378 -3.34104,1.93781 -6.14752,4.94474 -2.80647,3.00694 -5.21202,6.61526 -2.40555,3.54151 -4.47699,6.81572 -0.93549,1.47006 -1.9378,3.40787 -0.9355,1.87098 -2.00463,3.8756 -1.00231,2.00463 -2.13826,4.00925 -1.13596,1.9378 -2.40555,3.47468 -1.20278,1.53688 -2.60601,2.47237 -1.33642,0.93549 -2.80648,0.93549 -2.33873,0 -3.60832,-1.40323 -1.2696,-1.33642 -1.2696,-3.40787 0,-1.53687 0.53457,-3.20739 0.53457,-1.73734 1.73734,-4.20971 z" />
      <path
         id="path86"
         style=""
         d="m 290.08087,121.33398 q 0,-1.53688 0.53457,-3.14058 0.60139,-1.67052 1.73734,-3.00693 1.13595,-1.33642 2.80647,-2.20509 1.73735,-0.86867 4.07607,-0.86867 3.87561,0 5.41249,1.53688 1.53688,1.47006 1.53688,3.74196 0,1.2696 -0.53457,2.80648 -0.46775,1.53687 -1.47006,2.87329 -1.00231,1.2696 -2.60601,2.13827 -1.6037,0.86867 -3.80878,0.86867 -4.14289,0 -5.81341,-1.2696 -1.67052,-1.33641 -1.87099,-3.47468 z m -7.35028,15.03468 q 1.13595,-1.87098 2.60601,-2.67283 1.47005,-0.80185 3.00693,-0.80185 2.53919,0 4.34335,1.67052 1.87099,1.6037 1.87099,4.14289 -0.0668,0.60139 -0.20047,1.20277 -0.0668,0.60139 -0.40092,1.20278 -0.93549,1.73734 -1.53688,2.94011 -0.60139,1.20278 -1.13595,2.27191 -0.46775,1.00231 -0.93549,2.00462 -0.46775,1.00232 -1.13596,2.40555 -0.80185,1.67052 -1.80416,3.67515 -1.00231,1.9378 -1.9378,4.00924 -0.86867,2.07145 -1.53688,4.07607 -0.60139,2.00463 -0.60139,3.67515 0,1.80416 0.86867,2.40555 0.93549,0.53456 2.60601,0.53456 1.87099,0 3.87561,-0.80185 2.07145,-0.80185 4.14289,-2.07144 2.07145,-1.2696 4.07607,-2.8733 2.00462,-1.67052 3.74196,-3.34104 1.80417,-1.67052 3.27422,-3.2074 1.53688,-1.53687 2.53919,-2.73965 1.33642,-1.26959 2.67284,-1.26959 1.20277,0 1.9378,1.06913 0.80185,1.06913 0.80185,2.73965 0,1.53688 -0.80185,3.27422 -0.73503,1.73734 -2.47237,3.27422 -3.40786,3.47468 -6.94936,6.68208 -3.54151,3.14058 -7.28347,5.61295 -3.67515,2.40555 -7.41711,3.8756 -3.74197,1.47006 -7.55075,1.47006 -5.41249,0 -8.55306,-2.73965 -3.07376,-2.80647 -3.07376,-8.6867 0,-3.07376 0.86867,-6.01388 0.86867,-2.94011 2.07145,-5.67976 1.20277,-2.80648 2.53919,-5.34567 1.33641,-2.60601 2.2719,-4.94474 0.33411,-0.86867 1.13596,-2.67283 0.86867,-1.80416 1.80416,-3.67514 1.06913,-2.20509 2.27191,-4.67746 z" />
      <path
         id="path88"
         style=""
         d="m 346.4108,136.76958 q 1.87098,-1.47005 3.14058,-2.20508 1.33641,-0.80185 2.2719,-1.13596 0.93549,-0.40092 1.67052,-0.46774 0.80185,-0.0668 1.6037,-0.0668 1.40324,0 2.00463,1.06913 0.60138,1.00231 0.60138,2.13827 0,0.93549 -0.3341,1.73734 l -14.96786,31.20531 q 3.2074,-2.40555 7.35029,-4.67745 4.20971,-2.33873 8.01849,-4.14289 3.87561,-1.87099 6.61526,-3.00694 2.80648,-1.13595 3.2074,-1.13595 1.67052,0 2.94012,1.26959 1.26959,1.2696 1.26959,3.2074 0,1.73734 -1.33641,3.67514 -1.2696,1.93781 -4.54382,3.74197 -4.67745,2.60601 -8.15214,4.47699 -3.47468,1.80416 -6.14751,3.27422 -2.67283,1.47006 -4.74428,2.67283 -2.07144,1.20278 -3.94242,2.47237 -1.80416,1.2696 -3.60833,2.67283 -1.73734,1.47006 -3.80878,3.40787 -1.53688,4.00924 -3.07376,7.68439 -1.47006,3.67514 -2.73965,6.48162 -1.20278,2.80647 -2.00463,4.54381 -0.80185,1.73734 -0.86867,1.87098 -5.41248,11.2259 -11.8941,11.2259 -2.67283,0 -4.34335,-1.80416 -1.67052,-1.73735 -1.67052,-4.74428 0,-2.80648 0.66821,-5.61295 0.73503,-2.73965 2.47237,-6.08069 1.80416,-3.34104 4.67745,-7.48393 2.94012,-4.07607 7.35029,-9.6222 l 13.36416,-27.06242 q -10.02312,11.8941 -18.17526,18.17526 -8.15213,6.28115 -15.23514,6.28115 -2.27191,0 -3.87561,-1.06913 -1.60369,-1.00231 -1.60369,-3.40786 0,-3.34104 1.60369,-7.55075 0.9355,-2.27191 1.87099,-4.14289 0.93549,-1.9378 1.9378,-3.80879 1.00231,-1.9378 2.07145,-4.14289 1.13595,-2.20508 2.40554,-4.94474 1.33642,-2.80647 2.8733,-6.41479 1.6037,-3.67515 3.5415,-8.55307 1.33642,-2.60601 3.47468,-3.74196 2.13827,-1.20277 4.14289,-1.20277 2.07145,0 3.47468,1.00231 1.47006,0.93549 1.47006,2.53919 0,0.80185 -0.26728,1.40323 l -12.22821,25.45873 q -0.93549,1.9378 -0.93549,3.07376 0,1.00231 0.80185,1.00231 0.73503,0 1.87098,-0.73503 1.13596,-0.73503 2.13827,-1.67052 z" />
      <path
         id="path90"
         style=""
         d="m 437.08665,163.1638 q -2.94012,3.34104 -6.88255,6.54844 -3.8756,3.14058 -8.01849,5.61295 -4.14289,2.47237 -8.15214,3.94242 -4.00925,1.53688 -7.21665,1.53688 -3.20739,0 -5.21202,-1.80416 -2.00462,-1.80416 -2.00462,-6.14751 0,-3.07376 1.06913,-7.14983 -1.73734,2.60601 -4.34335,5.27884 -2.60601,2.67284 -5.94705,4.87792 -3.34104,2.20509 -7.48393,3.54151 -4.14289,1.40323 -9.02081,1.40323 -2.20509,0 -4.27653,-0.46774 -2.00462,-0.46775 -3.5415,-1.6037 -1.53688,-1.13596 -2.47237,-3.00694 -0.93549,-1.9378 -0.93549,-4.8111 0,-0.0668 0.26728,-2.00462 0.26728,-2.00462 1.67052,-6.21433 1.47006,-4.27654 4.47699,-11.02544 3.00694,-6.7489 8.48624,-16.37109 1.40324,-2.53919 3.2074,-3.60833 1.87099,-1.13595 4.00925,-1.13595 0.93549,0 1.9378,0.26728 1.00232,0.20047 1.87099,0.73503 0.86867,0.46775 1.40323,1.2696 0.53457,0.73503 0.53457,1.73734 0,0.66821 -0.20046,1.26959 -0.33411,1.13596 -1.47006,3.00694 -1.06913,1.80416 -2.53919,4.20971 -1.47006,2.33873 -3.14058,5.07838 -1.6037,2.73965 -3.00693,5.67977 -1.40324,2.94011 -2.40555,6.01387 -1.00232,3.00694 -1.13596,5.88023 0,1.20278 0.66821,2.20509 0.66821,1.00231 2.20509,1.00231 4.34335,0 8.28578,-2.40555 3.94242,-2.40555 7.28346,-5.94705 3.34104,-3.60832 6.01388,-7.68439 2.73965,-4.14289 4.54381,-7.55075 1.2696,-2.27191 2.20509,-4.87792 1.00231,-2.60601 2.13826,-4.8111 1.13596,-2.20509 2.60601,-3.67514 1.47006,-1.47006 3.67515,-1.47006 2.40555,0 3.80878,1.53688 1.40324,1.53688 1.40324,3.67514 0,1.20278 -0.93549,3.34104 -0.86867,2.07145 -2.27191,4.8111 -1.33641,2.67283 -2.94011,5.74659 -1.6037,3.07376 -3.00694,6.28115 -1.33642,3.14058 -2.27191,6.21434 -0.86867,3.00693 -0.86867,5.61295 0,2.40554 2.94012,2.40554 2.07144,0 5.1452,-1.20277 3.07376,-1.20277 6.4148,-3.34104 3.40786,-2.20509 6.7489,-5.1452 3.40786,-2.94012 6.01387,-6.34798 z" />
      <path
         id="path92"
         style=""
         d="m 503.97426,143.2512 q -1.26959,2.80648 -2.80647,6.7489 -1.53688,3.94243 -3.34104,8.21896 -1.80416,4.27653 -3.87561,8.48624 -2.00462,4.20971 -4.27653,7.55075 -2.20509,3.27422 -4.61064,5.34567 -2.33872,2.07144 -4.81109,2.07144 -2.07145,0 -3.40786,-0.66821 -1.33642,-0.60138 -2.07145,-1.60369 -0.73503,-0.9355 -1.06913,-2.07145 -0.26728,-1.20277 -0.26728,-2.27191 0,-1.6037 0.46774,-3.27422 0.53457,-1.67052 1.2696,-3.07375 l 25.59236,-47.10867 q 1.67052,-2.94011 3.14058,-4.61063 1.53688,-1.67052 2.80647,-2.47237 1.33642,-0.80185 2.33873,-0.93549 1.00231,-0.20047 1.67052,-0.20047 1.20278,0 2.20509,0.86868 1.00231,0.80184 1.00231,3.00693 0,2.13827 -1.13595,5.88023 -1.13596,3.74197 -4.20971,9.6222 5.21202,-0.40093 10.2904,-1.73734 5.07838,-1.40324 9.08763,-3.80879 4.07607,-2.40555 6.54844,-5.81341 2.47237,-3.47468 2.47237,-8.0185 0,-4.00924 -1.33642,-7.61757 -1.26959,-3.67514 -3.80879,-6.414793 -2.47237,-2.806474 -6.14751,-4.410173 -3.67514,-1.67052 -8.48624,-1.67052 -6.54844,0 -11.29272,1.269595 -4.67745,1.202774 -8.08531,3.207398 -3.34104,2.004624 -5.61295,4.610633 -2.27191,2.60601 -3.94243,5.27885 -1.6037,2.67283 -2.87329,5.27884 -1.2696,2.60601 -2.67283,4.61063 -1.33642,2.00463 -3.07376,3.27422 -1.73734,1.20278 -4.27653,1.20278 -3.27422,0 -4.87792,-1.67052 -1.53688,-1.67052 -1.53688,-4.74428 0,-3.07376 1.67052,-6.68208 1.67052,-3.67514 4.74428,-7.35029 3.07376,-3.675141 7.41711,-7.016181 4.41017,-3.407861 9.88948,-6.013872 5.4793,-2.606011 11.8941,-4.14289 6.48162,-1.603699 13.63144,-1.603699 6.68208,0 12.82959,1.937803 6.21434,1.870983 10.95862,5.679768 4.74427,3.808786 7.55075,9.555375 2.87329,5.679766 2.87329,13.364156 0,7.01619 -3.40786,12.69596 -3.34104,5.61294 -9.08763,9.55537 -5.67977,3.87561 -13.1637,6.01387 -7.48393,2.07145 -15.76971,2.07145 -1.73734,0 -3.5415,-0.0668 -1.73734,-0.0668 -3.47468,-0.33411 z" />
      <path
         id="path94"
         style=""
         d="m 566.05078,142.64982 q -3.14058,0 -6.08069,1.60369 -2.94012,1.6037 -5.21202,4.20971 -2.27191,2.60602 -3.60833,5.88024 -1.33641,3.20739 -1.33641,6.48161 0,1.33642 0.13364,2.80648 0.20046,1.40323 0.80185,2.60601 0.60138,1.20277 1.67052,2.00462 1.13595,0.80185 3.00693,0.80185 1.47006,0 3.40786,-1.26959 2.00463,-1.33642 4.07607,-3.34104 2.13827,-2.07145 4.14289,-4.477 2.00463,-2.47237 3.60833,-4.8111 1.6037,-2.33872 2.60601,-4.20971 1.00231,-1.87098 1.00231,-2.73965 0,-1.26959 -0.86867,-2.27191 -0.86867,-1.06913 -2.13827,-1.80416 -1.26959,-0.73503 -2.73965,-1.06913 -1.40324,-0.40092 -2.47237,-0.40092 z m 46.30682,17.23976 q -1.20278,1.13596 -3.2074,3.14058 -2.00463,2.00462 -4.61064,4.34335 -2.53919,2.33873 -5.4793,4.74428 -2.8733,2.33873 -5.94705,4.27653 -3.00694,1.9378 -5.94706,3.14058 -2.94011,1.26959 -5.54612,1.26959 -2.33873,0 -4.00925,-1.00231 -1.67052,-1.00231 -2.80647,-2.60601 -1.06914,-1.6037 -1.6037,-3.60832 -0.53457,-2.07145 -0.53457,-4.20971 0,-1.40324 0.20046,-2.73966 0.20047,-1.40323 0.66821,-2.60601 -2.07144,2.80647 -4.74428,5.81341 -2.60601,2.94012 -5.67976,5.41249 -3.00694,2.40554 -6.34798,3.94242 -3.27422,1.6037 -6.68208,1.6037 -1.73734,0 -4.07607,-0.73503 -2.27191,-0.6682 -4.34335,-2.2719 -2.07145,-1.6037 -3.47468,-4.14289 -1.40324,-2.53919 -1.40324,-6.21434 0,-2.73965 0.80185,-6.54844 0.86867,-3.80878 2.53919,-7.88485 1.73734,-4.14289 4.34335,-8.15214 2.67283,-4.00925 6.28116,-7.14982 3.60832,-3.2074 8.21896,-5.14521 4.61063,-2.00462 10.2904,-2.00462 2.94011,0 5.1452,0.73503 2.20509,0.73503 3.74197,1.6037 1.73734,1.06913 3.07375,2.33873 1.13596,-0.60139 2.33873,-1.13596 1.00231,-0.46774 2.07145,-0.80185 1.13595,-0.40092 1.9378,-0.40092 2.53919,0 4.14289,1.40324 1.6037,1.40323 1.6037,3.07375 0,0.46775 -0.0668,0.73503 -0.33411,1.2696 -1.06914,3.2074 -0.6682,1.9378 -1.53687,4.34335 -0.86867,2.33873 -1.80417,4.94474 -0.86867,2.53919 -1.6037,5.01156 -0.73502,2.47237 -1.20277,4.67746 -0.46775,2.13826 -0.46775,3.67514 0,2.00462 0.66821,3.34104 0.66821,1.2696 2.27191,1.2696 1.00231,0 2.33873,-0.60139 1.40323,-0.66821 3.00693,-1.73734 1.6037,-1.06914 3.27422,-2.40555 1.73734,-1.40324 3.34104,-2.80647 3.74197,-3.34104 7.95168,-7.61758 1.06913,-0.86867 2.07144,-0.86867 1.33642,0 2.20509,1.33642 0.93549,1.26959 0.93549,2.87329 0,1.87099 -1.26959,3.14058 z" />
      <path
         id="path96"
         style=""
         d="m 636.41313,130.55525 q 2.94011,0 5.1452,0.73503 2.20508,0.73503 3.74196,1.6037 1.73734,1.06913 3.07376,2.33873 0.93549,-0.60139 2.00462,-1.13596 0.93549,-0.46774 2.07145,-0.80185 1.13595,-0.40092 2.2719,-0.40092 2.94012,0 4.54382,1.20277 1.6037,1.20278 1.6037,2.8733 0,0.86867 -0.46775,1.73734 l -15.63606,29.60161 1.26959,-1.13595 q 7.88485,-4.61064 12.96324,-7.21665 5.07838,-2.67283 8.08531,-3.94242 3.00694,-1.2696 4.27653,-1.53688 1.33642,-0.33411 1.67052,-0.33411 1.53688,0 2.33873,1.20278 0.86867,1.13595 0.86867,2.87329 0,1.9378 -1.13595,3.94243 -1.06913,2.00462 -3.34104,2.87329 -3.00694,1.53688 -7.01619,3.34104 -4.00924,1.73734 -8.3526,3.87561 -4.34335,2.13827 -8.75352,4.8111 -4.34335,2.60601 -8.15214,5.81341 l -12.96323,23.4541 q -1.6037,3.80878 -2.94012,6.21433 -1.26959,2.40555 -2.53919,3.80879 -1.26959,1.40323 -2.60601,1.9378 -1.33642,0.53457 -3.07376,0.53457 -2.60601,0 -4.14289,-1.80416 -1.47005,-1.80417 -1.47005,-4.34336 0,-2.67283 1.26959,-6.21433 1.2696,-3.5415 3.5415,-7.68439 2.33873,-4.07607 5.61295,-8.61989 3.27422,-4.47699 7.28347,-9.15445 l 8.28578,-10.55768 q -2.53919,2.33873 -5.01156,4.00925 -2.47237,1.67052 -4.74428,2.73965 -2.27191,1.00231 -4.27653,1.47006 -1.9378,0.46774 -3.40786,0.46774 -2.67283,0 -4.94474,-1.20277 -2.27191,-1.2696 -3.94243,-3.47468 -1.6037,-2.20509 -2.53919,-5.21203 -0.93549,-3.00693 -0.93549,-6.54843 0,-7.35029 2.80647,-13.29734 2.8733,-5.94706 7.28347,-10.08994 4.47699,-4.20972 9.82266,-6.48162 5.41248,-2.27191 10.55769,-2.27191 z m -2.5392,11.76046 q -3.14057,0 -6.08069,1.6037 -2.94011,1.53688 -5.21202,4.14289 -2.27191,2.53919 -3.60832,5.88023 -1.33642,3.34104 -1.33642,6.88254 0,1.06914 0.13364,2.33873 0.20046,1.20278 0.73503,2.27191 0.60139,1.06913 1.67052,1.80416 1.13595,0.66821 3.07376,0.66821 1.40323,0 3.27422,-1.20278 1.9378,-1.26959 3.94242,-3.14057 2.07145,-1.93781 4.00925,-4.20971 1.93781,-2.33873 3.47468,-4.54382 1.6037,-2.20509 2.53919,-3.94243 0.9355,-1.80416 0.9355,-2.67283 0,-1.47006 -0.80185,-2.53919 -0.80185,-1.13595 -2.00463,-1.87098 -1.13595,-0.73503 -2.47237,-1.06913 -1.26959,-0.40093 -2.27191,-0.40093 z" />
      <path
         id="path98"
         style=""
         d="m 696.084,139.7097 q -0.3341,-0.0668 -0.60139,-0.0668 -0.26728,0 -0.60138,0 -2.5392,0 -4.74428,1.00231 -2.20509,1.00231 -4.07607,2.67283 -1.80416,1.6037 -3.27422,3.67515 -1.40324,2.07144 -2.53919,4.14289 -1.13595,2.00462 -1.9378,3.8756 -0.73503,1.87099 -1.13596,3.14058 2.33873,-1.20277 4.8111,-2.73965 2.53919,-1.53688 4.74428,-2.94012 2.20508,-1.40323 3.80878,-2.53919 1.67052,-1.13595 2.33873,-1.53688 3.00694,-1.87098 4.14289,-3.47468 1.13595,-1.67052 1.13595,-2.87329 0,-1.00231 -0.6682,-1.6037 -0.60139,-0.60139 -1.40324,-0.73503 z m 2.40555,-9.22127 q 5.54612,0 8.28578,2.67283 2.73965,2.67283 2.73965,7.41711 0,2.80647 -1.47006,5.88023 -1.47005,3.07376 -5.07838,6.28116 -3.60832,3.14057 -9.68901,6.48161 -6.01388,3.27422 -15.1015,6.61526 0.3341,1.93781 2.07144,3.07376 1.73734,1.06913 4.61064,1.06913 3.07375,0 6.54843,-0.86867 3.54151,-0.93549 6.94937,-2.33873 3.47468,-1.40323 6.7489,-3.00693 3.27422,-1.67052 5.88023,-3.14058 2.67283,-1.47006 4.41017,-2.53919 1.80416,-1.06913 2.40555,-1.33642 0.60139,-0.40092 1.06913,-0.46774 0.53457,-0.0668 0.93549,-0.0668 0.80185,0 1.33642,0.40092 0.53457,0.33411 0.86867,0.86867 0.40093,0.46775 0.53457,1.06914 0.13364,0.53456 0.13364,0.93549 0,0.60138 -0.13364,1.47005 -0.13364,0.80185 -1.00232,1.87099 -0.3341,0.3341 -2.2719,1.80416 -1.87098,1.47006 -4.87792,3.47468 -3.00694,2.00462 -7.01618,4.27653 -3.94243,2.20509 -8.41943,4.07607 -4.41017,1.87098 -9.22127,3.07376 -4.81109,1.26959 -9.48855,1.26959 -4.00925,0 -7.14983,-1.53688 -3.07375,-1.53687 -5.27884,-4.14289 -2.13826,-2.60601 -3.27422,-6.01387 -1.13595,-3.40786 -1.13595,-7.14982 0,-2.8733 1.13595,-6.28116 1.13596,-3.47468 3.27422,-6.94936 2.13827,-3.47468 5.21202,-6.7489 3.14058,-3.34104 7.01619,-5.88023 3.8756,-2.53919 8.48624,-4.07607 4.67746,-1.53688 9.9563,-1.53688 z" />
    </g>
  </g>
</svg>
